<svg height="511pt" viewBox="1 -8 511.99947 511" width="511pt" xmlns="http://www.w3.org/2000/svg" xmlns:xlink="http://www.w3.org/1999/xlink"><linearGradient id="a"><stop offset="0" stop-color="#662d91"/><stop offset=".437" stop-color="#3873b3"/><stop offset="1" stop-color="#00c9dd"/></linearGradient><linearGradient id="b" gradientTransform="matrix(1.066827 0 0 -1.066827 0 499.779747)" gradientUnits="userSpaceOnUse" x1="19.4682" x2="438.0766" xlink:href="#a" y1="428.8094" y2="10.201"/><linearGradient id="c" gradientTransform="matrix(1.066827 0 0 -1.066827 0 499.779747)" gradientUnits="userSpaceOnUse" x1="65.3261" x2="483.9345" xlink:href="#a" y1="474.6673" y2="56.0589"/><linearGradient id="d" gradientTransform="matrix(1.066827 0 0 -1.066827 0 499.779747)" gradientUnits="userSpaceOnUse" x1="93.3218" x2="511.9302" xlink:href="#a" y1="502.6631" y2="84.0547"/><linearGradient id="e" gradientTransform="matrix(1.066827 0 0 -1.066827 0 499.779747)" gradientUnits="userSpaceOnUse" x1="77.3243" x2="495.9326" xlink:href="#a" y1="486.6655" y2="68.0571"/><linearGradient id="f" gradientTransform="matrix(1.066827 0 0 -1.066827 0 499.779747)" gradientUnits="userSpaceOnUse" x1="61.3267" x2="479.9351" xlink:href="#a" y1="470.6679" y2="52.0595"/><linearGradient id="g" gradientTransform="matrix(1.066827 0 0 -1.066827 0 499.779747)" gradientUnits="userSpaceOnUse" x1="45.3291" x2="463.9375" xlink:href="#a" y1="454.6703" y2="36.062"/><linearGradient id="h" gradientTransform="matrix(1.066827 0 0 -1.066827 0 499.779747)" gradientUnits="userSpaceOnUse" x1="29.3315" x2="447.9399" xlink:href="#a" y1="438.6728" y2="20.0644"/><linearGradient id="i" gradientTransform="matrix(1.066827 0 0 -1.066827 0 499.779747)" gradientUnits="userSpaceOnUse" x1="13.334" x2="431.9424" xlink:href="#a" y1="422.6752" y2="4.0668"/><linearGradient id="j" gradientTransform="matrix(1.066827 0 0 -1.066827 0 499.779747)" gradientUnits="userSpaceOnUse" x1="-42.6575" x2="375.9509" xlink:href="#a" y1="366.6837" y2="-51.9247"/><path d="m68.265625 179.699219v315.734375h341.332031v-167.132813l94.601563-94.601562c10.402343-10.402344 10.402343-27.265625 0-37.667969-10.402344-10.398438-27.265625-10.398438-37.667969 0l-56.933594 56.933594v-209.796875c-.027344-23.554688-19.113281-42.640625-42.664062-42.667969h-324.265625c-23.554688.027344-42.6406252 19.113281-42.667969 42.667969v136.53125zm410.335937 28.398437c3.734376-3.734375 9.792969-3.734375 13.53125 0 3.738282 3.738282 3.738282 9.796875 0 13.535156l-5.734374 5.734376-13.53125-13.535157zm-17.804687 17.800782 13.535156 13.535156-141.53125 141.53125-13.535156-13.53125zm-153.597656 153.601562 13.535156 13.535156-9.796875 9.792969-22.511719 9.023437 9.019531-22.554687zm85.332031-336.332031v226.867187l-29.132812 29.132813h-261v17.066406h243.933593l-17.066406 17.066406h-226.867187v17.066407h209.800781l-11.03125 11.035156-6.035157 6.03125-11.03125 11.035156c-.816406.816406-1.460937 1.789062-1.894531 2.855469l-17.070312 42.667969c-1.75 4.375.378906 9.34375 4.753906 11.09375 2.035156.816406 4.304687.816406 6.339844 0l42.667969-17.066407c1.070312-.4375 2.042968-1.078125 2.859374-1.894531l11.042969-11.027344 59.730469-59.730468v133h-307.199219v-435.199219c-.03125-9.265625-3.105469-18.257813-8.753906-25.601563h290.355469c14.136718 0 25.597656 11.460938 25.597656 25.601563zm-375.464844 0c0-14.140625 11.460938-25.601563 25.601563-25.601563 14.136719 0 25.597656 11.460938 25.597656 25.601563v119.464843h-51.199219zm0 0" fill="url(#b)"/><path d="m102.398438 60.234375h85.335937v17.066406h-85.335937zm0 0" fill="url(#c)"/><path d="m102.398438 94.367188h273.066406v17.066406h-273.066406zm0 0" fill="url(#d)"/><path d="m102.398438 128.5h273.066406v17.066406h-273.066406zm0 0" fill="url(#e)"/><path d="m102.398438 162.632812h273.066406v17.066407h-273.066406zm0 0" fill="url(#f)"/><path d="m102.398438 196.765625h273.066406v17.070313h-273.066406zm0 0" fill="url(#g)"/><path d="m102.398438 230.898438h273.066406v17.070312h-273.066406zm0 0" fill="url(#h)"/><path d="m102.398438 265.035156h273.066406v17.066406h-273.066406zm0 0" fill="url(#i)"/><path d="m230.398438 444.234375h136.535156v17.066406h-136.535156zm0 0" fill="url(#j)"/></svg>