<svg height="512pt" viewBox="0 -15 512.001 512" width="512pt" xmlns="http://www.w3.org/2000/svg"><path d="m75.507812 231.484375c0-25.566406-19.75-46.5-44.824218-48.414063 11.148437-45.453124 35.953125-85.535156 69.824218-115.652343 13.804688 22.078125 42.71875 29.421875 65.445313 16.296875l.921875-.53125c22.332031-12.890625 30.539062-40.835938 19.230469-63.617188 20.734375-6.226562 42.710937-9.585937 65.476562-9.585937 24.703125 0 48.476563 3.953125 70.742188 11.234375l-.035157.066406c-3.742187 6.480469-6.179687 13.445312-6.367187 20.460938-.871094 32.558593 19.988281 43.273437 19.988281 43.273437 29.304688 21.613281 56.53125 1.339844 56.53125 1.339844 5.675782-3.824219 10.625-8.914063 14.382813-15.136719 33.84375 31.621094 58.03125 73.445312 67.632812 120.582031h-2.152343c-26.824219 0-48.574219 21.746094-48.574219 48.570313v1.0625h-348.222657zm0 0" fill="#5ecef4"/><path d="m152.242188 233.78125c0-28.167969 11.613281-53.625 30.308593-71.847656 3.984375-3.886719 8.289063-7.4375 12.871094-10.621094 16.214844-11.257812 35.910156-17.855469 57.144531-17.855469 18.941406 0 36.910156 5.402344 52.023438 14.523438l.089844.054687c28.761718 17.640625 48.214843 49.535156 48.214843 85.746094" fill="#fff"/><path d="m229.761719 444.847656c0 14.640625-11.867188 26.511719-26.507813 26.511719s-26.511718-11.871094-26.511718-26.511719 11.871093-26.507812 26.511718-26.507812 26.507813 11.867187 26.507813 26.507812zm0 0" fill="#00ee8a"/><path d="m126.886719 444.847656c0 14.640625-11.867188 26.511719-26.511719 26.511719-14.640625 0-26.507812-11.871094-26.507812-26.511719s11.867187-26.507812 26.507812-26.507812c14.644531 0 26.511719 11.867187 26.511719 26.507812zm0 0" fill="#ff9f22"/><path d="m62.476562 349.285156c0 14.640625-11.867187 26.511719-26.507812 26.511719s-26.511719-11.871094-26.511719-26.511719 11.871094-26.507812 26.511719-26.507812 26.507812 11.867187 26.507812 26.507812zm0 0" fill="#00ee8a"/><path d="m330.597656 444.847656c0 14.640625-11.867187 26.511719-26.507812 26.511719s-26.511719-11.871094-26.511719-26.511719 11.871094-26.507812 26.511719-26.507812 26.507812 11.867187 26.507812 26.507812zm0 0" fill="#ff415b"/><path d="m433.472656 444.847656c0 14.640625-11.867187 26.511719-26.507812 26.511719s-26.511719-11.871094-26.511719-26.511719 11.871094-26.507812 26.511719-26.507812 26.507812 11.867187 26.507812 26.507812zm0 0" fill="#ff9f22"/><path d="m501.496094 349.285156c0 14.640625-11.867188 26.511719-26.507813 26.511719s-26.507812-11.871094-26.507812-26.511719 11.867187-26.507812 26.507812-26.507812 26.507813 11.867187 26.507813 26.507812zm0 0" fill="#ff415b"/><path d="m314.589844 409.757812v-56.445312c0-5.511719-4.46875-9.980469-9.980469-9.980469-5.507813 0-9.980469 4.46875-9.980469 9.980469v56.445312c-15.28125 4.351563-26.507812 18.429688-26.507812 35.089844 0 20.121094 16.367187 36.492188 36.488281 36.492188 20.125 0 36.492187-16.371094 36.492187-36.492188 0-16.660156-11.226562-30.738281-26.511718-35.089844zm-9.980469 51.621094c-9.113281 0-16.527344-7.417968-16.527344-16.53125 0-9.113281 7.414063-16.527344 16.527344-16.527344 9.117187 0 16.53125 7.414063 16.53125 16.527344 0 9.113282-7.414063 16.53125-16.53125 16.53125zm0 0"/><path d="m475.507812 312.796875c-16.660156 0-30.738281 11.226563-35.089843 26.511719h-26.566407v-87.894532h10.402344c5.511719 0 9.980469-4.46875 9.980469-9.980468v-1.0625c0-21.277344 17.3125-38.589844 38.589844-38.589844h2.152343c2.996094 0 5.835938-1.347656 7.730469-3.667969 1.894531-2.320312 2.648438-5.371093 2.050781-8.304687-9.863281-48.414063-34.273437-91.945313-70.597656-125.882813-2.199218-2.054687-5.203125-3.007812-8.1875-2.59375-2.980468.414063-5.613281 2.148438-7.171875 4.722657-2.921875 4.84375-6.765625 8.886718-11.417969 12.023437-.128906.089844-.199218.136719-.324218.230469-.886719.636718-21.933594 15.46875-44.707032-1.328125-.496093-.363281-.765624-.554688-1.300781-.8125-1.277343-.738281-15.292969-9.417969-14.632812-34.164063.132812-4.878906 1.824219-10.171875 5.078125-15.808594 1.5-2.605468 1.746094-5.746093.667968-8.554687-1.074218-2.804687-3.359374-4.976563-6.214843-5.910156-23.800781-7.785157-48.644531-11.730469-73.84375-11.730469-23.234375 0-46.230469 3.367188-68.351563 10.003906-2.816406.847656-5.117187 2.890625-6.285156 5.589844-1.171875 2.699219-1.09375 5.777344.214844 8.410156 9.03125 18.179688 2.316406 40.378906-15.28125 50.539063l-.914063.53125c-18.085937 10.441406-40.925781 4.753906-51.992187-12.949219-1.558594-2.492188-4.136719-4.171875-7.046875-4.589844-2.910157-.417968-5.855469.46875-8.046875 2.421875-36.207032 32.195313-61.414063 73.945313-72.890625 120.734375-.699219 2.847656-.109375 5.859375 1.609375 8.234375 1.722656 2.375 4.398437 3.871094 7.324218 4.09375 19.964844 1.523438 35.605469 18.417969 35.605469 38.460938v9.953125c0 5.507812 4.46875 9.980468 9.980469 9.980468h18.503906v87.890626h-22.953125c-4.355469-15.28125-18.433593-26.511719-35.09375-26.511719-20.121093.003906-36.488281 16.371093-36.488281 36.492187s16.367188 36.492188 36.492188 36.492188c16.660156 0 30.738281-11.226563 35.089843-26.511719h32.933594c5.507813 0 9.980469-4.46875 9.980469-9.980469v-97.871094h29.390625v128.171876l-27.355469 32.296874c-4.742188-2.257812-10.042969-3.523437-15.632812-3.523437-20.121094 0-36.492188 16.367187-36.492188 36.492187 0 20.121094 16.371094 36.488282 36.492188 36.488282 20.121093 0 36.492187-16.367188 36.492187-36.488282 0-7.292968-2.160156-14.089843-5.859375-19.796874l29.953125-35.359376c.015625-.019531.023437-.035156.039063-.050781.140624-.167969.265624-.34375.394531-.519531.066406-.089844.140625-.179688.207031-.273438.117188-.175781.226562-.363281.335938-.546874.058593-.097657.125-.195313.175781-.292969.089843-.164063.167969-.339844.246093-.507813.058594-.125.125-.246094.179688-.375.039062-.089844.066406-.183594.101562-.273437.082032-.210938.167969-.421875.234376-.640625.023437-.078125.039062-.160156.0625-.238282.066406-.234374.132812-.46875.183593-.707031.019531-.089843.027344-.183593.042969-.273437.039062-.234375.082031-.464844.105469-.703125.011719-.101563.011719-.207031.019531-.308594.015625-.226563.03125-.453125.035156-.679687 0-.023438 0-.042969 0-.0625v-131.828126h29.945313v158.34375c-15.28125 4.355469-26.507813 18.429688-26.507813 35.09375 0 20.117188 16.367188 36.488282 36.488282 36.488282 20.125 0 36.492187-16.367188 36.492187-36.488282 0-16.664062-11.226563-30.738281-26.511719-35.09375v-158.34375h80.875v24.050782c0 5.511718 4.472656 9.980468 9.980469 9.980468 5.511719 0 9.980469-4.46875 9.980469-9.980468v-24.050782h29.945312v131.828126c0 .023437.003906.042968.003906.0625.003907.226562.019532.453124.035157.679687.007812.101563.007812.207031.019531.3125.023438.234375.066406.464844.105469.699219.015625.089844.027343.183594.042969.273437.050781.238281.117187.472657.183593.707031.023438.078126.035157.160157.0625.242188.066407.214844.152344.425781.234375.636719.035156.09375.0625.1875.101563.277343.050781.125.117187.246094.179687.371094.078125.171875.152344.34375.242188.507813.054687.101562.121094.195312.179687.292969.109375.183593.214844.371093.335938.546874.066406.09375.140625.183594.207031.273438.128906.175781.253906.351562.394531.519531.011719.015625.023438.035157.039063.050781l29.953125 35.363282c-3.699219 5.703125-5.859375 12.5-5.859375 19.792968 0 20.121094 16.371094 36.488282 36.492187 36.488282 20.121094 0 36.488281-16.367188 36.488281-36.488282 0-20.121093-16.367187-36.492187-36.488281-36.492187-5.59375 0-10.890625 1.269531-15.632812 3.523437l-27.355469-32.296874v-128.171876h29.390625v97.871094c0 5.511719 4.46875 9.980469 9.980469 9.980469.617187 0 1.222656-.0625 1.808594-.171875.585937.109375 1.1875.171875 1.808593.171875h32.929688c4.355469 15.285156 18.433593 26.511719 35.09375 26.511719 20.121093 0 36.488281-16.371094 36.488281-36.492188s-16.367188-36.488281-36.492188-36.488281zm-439.015624 53.019531c-9.117188 0-16.53125-7.414062-16.53125-16.53125 0-9.113281 7.414062-16.527344 16.53125-16.527344 9.113281 0 16.527343 7.414063 16.527343 16.527344 0 9.117188-7.414062 16.53125-16.527343 16.53125zm64.40625 95.5625c-9.113282 0-16.527344-7.417968-16.527344-16.53125 0-9.113281 7.414062-16.527344 16.527344-16.527344 9.117187 0 16.53125 7.414063 16.53125 16.527344 0 9.113282-7.414063 16.53125-16.53125 16.53125zm119.40625-16.53125c0 9.113282-7.417969 16.53125-16.53125 16.53125-9.113282 0-16.527344-7.417968-16.527344-16.53125 0-9.113281 7.414062-16.527344 16.527344-16.527344 9.113281 0 16.53125 7.414063 16.53125 16.527344zm203.710937 0c0 9.113282-7.414063 16.53125-16.53125 16.53125-9.113281 0-16.527344-7.417968-16.527344-16.53125 0-9.113281 7.414063-16.527344 16.527344-16.527344 9.117187 0 16.53125 7.414063 16.53125 16.527344zm-380.351563-269.613281c10.503907-35.328125 29.730469-67.171875 56.207032-93.089844 18.277344 19.242188 47.675781 24.027344 71.597656 10.214844l.914062-.527344c23.175782-13.378906 33.90625-40.53125 27.375-65.515625 17.070313-4.21875 34.628907-6.351562 52.34375-6.351562 19.335938 0 38.4375 2.53125 56.933594 7.539062-1.585937 4.703125-2.449218 9.375-2.570312 13.96875-.933594 34.828125 19.835937 49.144532 24.515625 51.921875 27.582031 19.980469 56.210937 9.578125 67.746093 1.113281 3.550782-2.414062 6.785157-5.175781 9.6875-8.257812 26.285157 27.117188 44.828126 60.105469 54.222657 96.457031-24.554688 4.324219-43.886719 24.011719-47.683594 48.746094h-50.5c-.476563-22.789063-7.863281-44.535156-21.484375-63.023437-3.273438-4.433594-9.519531-5.378907-13.957031-2.113282-4.4375 3.269532-5.386719 9.519532-2.113281 13.957032 11.074218 15.03125 17.121093 32.679687 17.59375 51.179687h-180.613282c.59375-23.691406 10.21875-45.765625 27.261719-62.375 3.585937-3.496094 7.488281-6.714844 11.597656-9.566406 15.148438-10.515625 32.9375-16.074219 51.453125-16.074219 4.28125 0 8.605469.3125 12.855469.925781 5.46875.789063 10.515625-2.996093 11.304687-8.453125.789063-5.453125-2.996093-10.515625-8.449218-11.304687-5.191406-.75-10.476563-1.128907-15.710938-1.128907-22.601562 0-44.332031 6.789063-62.835937 19.636719-5.011719 3.480469-9.773438 7.40625-14.148438 11.671875-20.929687 20.398438-32.695312 47.546875-33.292969 76.664063h-57.902343c-.015625-26.351563-17.859375-49.117188-42.347657-56.214844zm431.84375 190.582031c-9.113281 0-16.527343-7.414062-16.527343-16.53125 0-9.113281 7.414062-16.527344 16.527343-16.527344 9.117188 0 16.53125 7.414063 16.53125 16.527344 0 9.117188-7.414062 16.53125-16.53125 16.53125zm0 0"/><path d="m298.332031 322.128906.253907.195313c1.808593 1.378906 3.933593 2.042969 6.042968 2.042969 3.007813 0 5.980469-1.351563 7.945313-3.929688 3.34375-4.382812 2.5-10.644531-1.886719-13.988281l-.253906-.191407c-4.386719-3.347656-10.648438-2.5-13.988282 1.882813-3.339843 4.386719-2.496093 10.648437 1.886719 13.988281zm0 0"/><path d="m298.0625 154.917969.253906.195312c1.808594 1.378907 3.9375 2.042969 6.046875 2.042969 3.007813 0 5.980469-1.351562 7.945313-3.929688 3.339844-4.382812 2.496094-10.644531-1.886719-13.988281l-.253906-.191406c-4.386719-3.347656-10.648438-2.5-13.988281 1.882813-3.34375 4.386718-2.5 10.648437 1.882812 13.988281zm0 0"/></svg>