<?xml version="1.0" encoding="iso-8859-1"?>
<!-- Generator: Adobe Illustrator 19.0.0, SVG Export Plug-In . SVG Version: 6.00 Build 0)  -->
<svg version="1.1" id="Capa_1" xmlns="http://www.w3.org/2000/svg" xmlns:xlink="http://www.w3.org/1999/xlink" x="0px" y="0px"
	 viewBox="0 0 512 512" style="enable-background:new 0 0 512 512;" xml:space="preserve">
<g>
	
		<rect x="107.987" y="59.906" transform="matrix(-0.8415 0.5402 -0.5402 -0.8415 273.7351 87.6035)" style="fill:#DDD8D5;" width="32.062" height="48.092"/>
	
		<rect x="371.941" y="59.907" transform="matrix(0.8415 0.5402 -0.5402 0.8415 106.8366 -196.2846)" style="fill:#DDD8D5;" width="32.062" height="48.092"/>
</g>
<rect x="223.937" y="7.515" style="fill:#FDC572;" width="64.125" height="48.094"/>
<path style="fill:#FCB74F;" d="M241.327,7.515h-17.39v48.094h64.125V42.305C266.686,39.463,247.871,30.756,241.327,7.515z"/>
<circle style="fill:#53D9ED;" cx="256" cy="280.047" r="224.438"/>
<circle style="fill:#E5E1E0;" cx="256" cy="280.047" r="192.376"/>
<circle style="fill:#F6F5F5;" cx="256" cy="280.047" r="168.329"/>
<path style="fill:#EE6482;" d="M256,87.671c106.247,0,192.376,86.129,192.376,192.376H256V87.671z"/>
<path style="fill:#F1839B;" d="M256,111.718v168.329h168.329C424.329,187.081,348.966,111.718,256,111.718z"/>
<circle style="fill:#BBB0AB;" cx="256" cy="280.047" r="24.047"/>
<path d="M420.015,116.032c-4.996-4.996-10.188-9.722-15.542-14.199l16.306-25.401c2.211-3.445,1.177-8.175-2.264-10.383
	l-26.982-17.321c-3.493-2.24-8.141-1.229-10.383,2.264l-15.686,24.434c-21.787-11.692-45.329-19.788-69.887-23.986v-20.38h8.517
	c4.15,0,7.515-3.364,7.515-7.515s-3.365-7.515-7.515-7.515h-8.517V7.515c0-4.151-3.365-7.515-7.515-7.515h-64.125
	c-4.15,0-7.515,3.364-7.515,7.515v8.517h-8.517c-4.15,0-7.515,3.364-7.515,7.515s3.365,7.515,7.515,7.515h8.517v20.38
	c-24.558,4.198-48.1,12.294-69.886,23.985l-15.686-24.434c-2.243-3.492-6.891-4.506-10.383-2.264L93.486,66.049
	c-3.442,2.208-4.475,6.939-2.264,10.383l16.306,25.401c-5.355,4.477-10.548,9.203-15.542,14.199
	c-43.811,43.81-67.938,102.058-67.938,164.015s24.127,120.206,67.938,164.015S194.043,512,256,512s120.206-24.127,164.015-67.938
	s67.938-102.058,67.938-164.015S463.826,159.841,420.015,116.032z M389.738,65.436l14.334,9.202l-11.485,17.891
	c-4.599-3.365-9.305-6.549-14.112-9.548L389.738,65.436z M231.452,48.094V15.029h49.096v33.065H231.452z M107.929,74.637
	l14.334-9.202l11.263,17.544c-4.806,3-9.513,6.184-14.112,9.549L107.929,74.637z M256,496.971
	c-119.612,0-216.924-97.311-216.924-216.924S136.388,63.123,256,63.123s216.924,97.311,216.924,216.924S375.612,496.971,256,496.971
	z"/>
<path d="M320.125,128.25c-4.15,0-7.515,3.364-7.515,7.515v8.747c-13.542,1.729-24.047,13.319-24.047,27.323
	c0,15.193,12.36,27.554,27.554,27.554h8.016c6.906,0,12.524,5.618,12.524,12.524s-5.618,12.524-12.524,12.524h-28.055
	c-4.15,0-7.515,3.364-7.515,7.515s3.365,7.515,7.515,7.515h16.532v8.517c0,4.151,3.365,7.515,7.515,7.515s7.515-3.364,7.515-7.515
	v-8.747c13.542-1.729,24.047-13.319,24.047-27.323c0-15.193-12.36-27.554-27.554-27.554h-8.016c-6.906,0-12.524-5.618-12.524-12.524
	s5.618-12.524,12.524-12.524h28.055c4.15,0,7.515-3.364,7.515-7.515s-3.365-7.515-7.515-7.515H327.64v-8.517
	C327.64,131.614,324.275,128.25,320.125,128.25z"/>
<path d="M429.468,379.288c16.805-29.259,26.423-63.147,26.423-99.241c0-35.654-9.505-70.654-27.486-101.218
	c-17.45-29.662-42.402-54.474-72.159-71.755c-3.589-2.085-8.188-0.865-10.272,2.724c-2.085,3.589-0.865,8.188,2.724,10.272
	c54.673,31.751,89.411,89.667,91.991,152.462H286.651c-2.789-11.376-11.76-20.346-23.136-23.136V95.339
	c18.475,0.736,36.581,4.191,53.926,10.301c3.917,1.378,8.205-0.676,9.585-4.591c1.38-3.915-0.676-8.205-4.591-9.585
	C301.136,83.961,278.784,80.157,256,80.157c-36.092,0-69.981,9.618-99.24,26.422c-0.238,0.106-0.475,0.225-0.705,0.359
	c-0.258,0.148-0.499,0.314-0.731,0.486c-29.712,17.395-54.553,42.236-71.948,71.95c-0.172,0.231-0.337,0.473-0.485,0.73
	c-0.133,0.23-0.251,0.466-0.358,0.704c-16.806,29.258-26.424,63.146-26.424,99.24s9.618,69.982,26.423,99.241
	c0.106,0.238,0.224,0.473,0.358,0.704c0.135,0.235,0.291,0.452,0.447,0.666c17.397,29.741,42.253,54.605,71.986,72.013
	c0.232,0.172,0.475,0.338,0.731,0.486c0.175,0.101,0.357,0.178,0.536,0.264c29.298,16.864,63.249,26.517,99.41,26.517
	s70.112-9.653,99.409-26.516c0.179-0.085,0.362-0.162,0.536-0.264c0.258-0.148,0.499-0.314,0.731-0.486
	c29.733-17.408,54.589-42.272,71.986-72.013c0.156-0.214,0.312-0.431,0.447-0.666C429.243,379.762,429.362,379.526,429.468,379.288z
	 M272.532,280.047c0,9.116-7.417,16.532-16.532,16.532c-9.116,0-16.532-7.417-16.532-16.532s7.416-16.532,16.532-16.532
	S272.532,270.931,272.532,280.047z M354.833,436.202l-12.169-21.077c-2.075-3.595-6.672-4.823-10.265-2.75
	c-3.594,2.075-4.825,6.671-2.75,10.265l12.179,21.094c-23.577,12.412-50.142,19.876-78.313,21.008V440.36
	c0-4.151-3.365-7.515-7.515-7.515c-4.15,0-7.515,3.364-7.515,7.515v24.383c-28.171-1.132-54.736-8.597-78.313-21.008l12.179-21.094
	c2.075-3.594,0.844-8.19-2.75-10.265c-3.594-2.074-8.19-0.845-10.265,2.75l-12.169,21.076
	c-23.062-14.649-42.673-34.259-57.322-57.322l21.077-12.169c3.594-2.075,4.825-6.671,2.75-10.265
	c-2.075-3.595-6.671-4.823-10.265-2.75l-21.094,12.179c-12.412-23.577-19.877-50.142-21.009-78.313h24.383
	c4.15,0,7.515-3.364,7.515-7.515s-3.365-7.515-7.515-7.515H71.304c1.132-28.171,8.596-54.736,21.009-78.313l21.094,12.179
	c3.834,2.212,8.87,0.546,10.644-3.499c1.517-3.46,0.139-7.63-3.129-9.518l-21.077-12.168c14.649-23.063,34.26-42.673,57.322-57.322
	l12.169,21.077c2.208,3.825,7.402,4.914,10.967,2.291c3.043-2.238,3.936-6.538,2.049-9.806l-12.179-21.094
	c23.577-12.412,50.142-19.876,78.313-21.008v154.045c-13.786,3.382-24.047,15.837-24.047,30.651
	c0,17.403,14.159,31.562,31.562,31.562c14.814,0,27.269-10.261,30.651-24.047h154.045c-1.132,28.171-8.596,54.736-21.009,78.313
	l-21.094-12.179c-3.595-2.074-8.19-0.845-10.265,2.75c-2.075,3.594-0.844,8.19,2.75,10.265l21.077,12.169
	C397.506,401.943,377.895,421.553,354.833,436.202z"/>
<g>
</g>
<g>
</g>
<g>
</g>
<g>
</g>
<g>
</g>
<g>
</g>
<g>
</g>
<g>
</g>
<g>
</g>
<g>
</g>
<g>
</g>
<g>
</g>
<g>
</g>
<g>
</g>
<g>
</g>
</svg>
